<svg id="Layer_1" data-name="Layer 1" xmlns="http://www.w3.org/2000/svg" viewBox="0 0 512 512"><defs><style>.cls-1{fill:#ffefd6;}.cls-2{fill:#d89d75;}.cls-3{fill:#e2a379;}.cls-4{fill:#333;}.cls-5{fill:#b3233b;}.cls-6{fill:#f4b382;}.cls-7{fill:#d6876b;}.cls-8{fill:#cc785e;}.cls-9{fill:#602f0f;}.cls-10{fill:#4c230c;}.cls-11{fill:#3d3c3c;}</style></defs><title>Artboard 20</title><path class="cls-1" d="M7.92,256C7.92,119,119,7.92,256,7.92S504.08,119,504.08,256,393,504.08,256,504.08,7.92,393,7.92,256Z"/><path class="cls-2" d="M338.53,217.21c-9.33-.15-16-3.71-24-5.5A68.74,68.74,0,0,0,300,210.55c-.23.8-.42,1.53-.56,2.13-.87,4,.13,6.27.67,7.32,0,0,1.8,3.35,5.3,3.78,6.84.84,35.8,1.37,35.8,1.37Z"/><path class="cls-2" d="M313.79,221.92c-2.28-4.68-6.66-12.21-6.66-12.21-3.31-6-4.68-12.12-7.73-17.55-4.72-9.07-6-11.91-6.84-14.4-1.37-4-4.19-9.38-8.23-10.5-6.17-1.72-14.87,2-13.55,8.86,1.93,10.07,22.42,39.74,29.6,46.49,3,2.81,5.46,4.28,6.64,4.36s3.78-1,5.95-3.75A10.61,10.61,0,0,0,313.79,221.92Z"/><path class="cls-2" d="M338.53,217.21c-.21.13-.12,1.37,2.69,7.93a19.68,19.68,0,0,1,5.46-.54c4.85.06,11.3-2.47,14.3-5.33a10.45,10.45,0,0,0,2.59-10.36c-1.2-3.55-15.6,3.3-20.42,3.86Z"/><path class="cls-2" d="M348.21,212.76s4.88-1.18,4.51-3.84c-.31-2.23-.64-2.95-9.6,3.88C343.13,212.79,343.77,214.16,348.21,212.76Z"/><path class="cls-3" d="M353.79,203.09c2.53,4.24,8.36,17.51,8.57,19,.5,3.6-.8,7.4-4.29,7.3-2.65-.07-5.15-.89-6.71-.45-8,2.24-32.61,7.31-42.37,8.72-2.31.33-6.5,1.34-8.05,1.34-9.95,0-4.93-20.67-1.09-20.63,14.42.12,47,.52,52.21.54,0,0-11-19.36-7.82-19.93C348.67,198.18,351.68,199.55,353.79,203.09Z"/><path class="cls-4" d="M268.54,238.69c11.5,1.22,22.46.81,32.4.31-1.3-3.23-1.94-17.62-1.09-20.63l-31.36-1.52c-8.79-.92-60.56-7-76.55-4.38a71.06,71.06,0,0,0-10.79,2.21c-5.82,1.67-8.28,32.15-.18,33.23,17.61-1.48,56.16-8.5,64.2-9.7S268.54,238.69,268.54,238.69Z"/><path class="cls-5" d="M272.47,212.74c12-2.59,12.53-13.31,23.59-23,1.39-1.21,3.83-9.67,2.94-13.53-1-4.3-2.75-8.52-7.09-10.9-3.35-1.84-13-4.75-34.28,5-10.08,3.84-70.1,29.06-70.1,29.06l17.31,32.7c6.44-4.53,45.49-20.19,57.82-21.43C262.67,210.66,269.07,213.48,272.47,212.74Z"/><path class="cls-3" d="M299,188.37s8.67-3.67,16.55-6.11l.18-13.43c-7.8,3.07-18.45,1.58-18.45,1.58,2,12.41-2.22,18-3.4,21.37Z"/><path class="cls-6" d="M339.34,184c6.27-1.17,8-6.59,8.67-10,2.1-10.4-1.7-15.11-7.39-20.28-7.52-6.83-28.37,10.4-30.74,14.33-6.18,10.23,2.73,24.51,7.51,29.12,5.26,5.06,5.59,2,7.38-.34a2,2,0,0,1,.62-.16,7.91,7.91,0,0,1,2.95-2.32,9.56,9.56,0,0,1,.72-1.22c.2-.25.36-.38.72-.23a7.77,7.77,0,0,0,2.6.81C334.31,193.62,336.43,184.55,339.34,184Z"/><path class="cls-7" d="M324.28,192.41s.23.78,2.67,3c.43.13,1.25.28,1.42-.8C328.49,193.84,326.21,193.78,324.28,192.41Z"/><path class="cls-8" d="M324.28,192.41s-.65,1.69,1.12,4.32a1.14,1.14,0,0,0,1,.13,1.05,1.05,0,0,0,.52-1.41C324.51,193.2,324.28,192.41,324.28,192.41Z"/><path class="cls-9" d="M341.25,152c-9.18-8.33-33.41-6.21-35.05,20.72-.11,1.79.68,4.77,5.47,5.22a23.26,23.26,0,0,0,6.59-.43q1.43-.35,3.09-.81c1.2-.33,4.73-5.39,5.8-4.69,10.28,6.76,18.44,5.47,20.63,3.06C351.91,168.39,351,160.94,341.25,152Z"/><path class="cls-6" d="M319.11,173.52c-2.33,5.32-.8,7,1.81,9l4.38-7.56,1.07-3.66C323.77,169.35,321.44,168.2,319.11,173.52Z"/><path class="cls-10" d="M314.21,153c-.48-3.78,4.54-7.3,11.2-7.88s12.45,2,12.93,5.79-3.82,6-10.48,6.56S314.69,156.73,314.21,153Z"/><path class="cls-9" d="M327.18,173.88a13,13,0,0,1,1.66-2.06,10.79,10.79,0,0,1,1.3-1.15l-3.53-1.46-1.08,1.18,1,.46-.09,0a18.29,18.29,0,0,1-1.35,4S325.48,176.51,327.18,173.88Z"/><path class="cls-9" d="M312.94,151.33c-.5-4,5-7.72,12.3-8.35s13.62,2.09,14.13,6.07-4.21,6.32-11.51,7S313.44,155.31,312.94,151.33Z"/><path class="cls-10" d="M321.85,144.55c-.05-.44,1.71-1,3.94-1.15s4.08,0,4.14.45-1.43.79-3.66,1S321.9,145,321.85,144.55Z"/><path class="cls-11" d="M187.57,199.38c-14,7.5-18.94,22.22-19.5,29-1.16,14,10.08,23.34,10.08,23.34s31.23,5.14,31.65-2.1c.35-5.93,1.35-16.74.68-23.24C209.58,217.51,187.57,199.38,187.57,199.38Z"/><path class="cls-6" d="M220,397.07c-4-.93-15.93,0-17.43-.1-3.63-.14-7.14-2.1-6.43-5.51.54-2.59,2.11-5,1.63-6.53-2.75-9.05-11.36-34.59-12.19-44.66-.19-2.32,19.93-3.71,19.69-.12-1,14.41,1.42,40.23,2.42,45.73,0,0,19.13,2.7,18.72,6.45C226.21,394.61,224.07,398,220,397.07Z"/><path class="cls-11" d="M182.73,308.49c-.92,11.48,1.67,23.48,2.92,32.39,3.25-1.24,16.67-1.63,19.67-.73.25-3.59-.74-31.3-.74-31.3,1.09-8.77,8.17-60.41,5.88-76.45a71.14,71.14,0,0,0-2-10.83c-1.56-5.85-34.11-2.51-35.36,5.57,1.13,17.64,9.53,49.92,10.57,58S182.73,308.49,182.73,308.49Z"/><path class="cls-6" d="M339.05,221c-21.71,3.44-28.75,2.72-34.62,2.18s-12.84.55-13.89.62c-.23.8-.42,1.53-.56,2.14-.87,4,.13,6.27.67,7.32,0,0,1.8,3.35,5.3,3.78,6.84.84,46.25-8.22,46.25-8.22Z"/><path class="cls-6" d="M301.64,233.32c-.95-5.11-3.22-13.33-3.22-13.33-1.57-6.69-3.15-15.69-4.64-21.73-2.12-10-2.59-13.08-2.74-15.7-.25-4.22-1.53-10.16-5.12-12.32-5.48-3.31-14.85-2.08-15.43,4.91-.83,10.22,12.93,46.83,18,55.25,2.13,3.51,4.12,5.59,5.24,6s3.9.07,6.73-2A10.77,10.77,0,0,0,301.64,233.32Z"/><path class="cls-6" d="M339.05,221c-.21.13-.12,1.37,2.69,7.93a19.61,19.61,0,0,1,5.46-.54c4.85.06,11.3-2.47,14.3-5.33a10.45,10.45,0,0,0,2.59-10.36c-1.2-3.55-15.6,3.3-20.42,3.86Z"/><path class="cls-6" d="M348.73,216.55s4.88-1.18,4.51-3.84c-.31-2.23-.64-3-9.6,3.88C343.65,216.59,344.29,218,348.73,216.55Z"/></svg>