<svg xmlns="http://www.w3.org/2000/svg" viewBox="0 0 48 48"><defs><style>.cls-1{fill:#6fabe6;}.cls-2{fill:#82bcf4;}.cls-3{fill:#9fdbf3;}.cls-4{fill:#b2e5fb;}.cls-5{fill:#9dcc6b;}.cls-6{fill:#dad7e5;}.cls-7{fill:#5b9ad8;}.cls-8{fill:#edebf2;}.cls-9{fill:#a82af4;}</style></defs><title>Drink Water</title><g id="Drink_Water_Virus" data-name="Drink Water Virus"><path class="cls-1" d="M27,43.11a10.15,10.15,0,0,0,3.77,2.35,4.11,4.11,0,0,1-1.48.65,48.55,48.55,0,0,1-18.54,0,4,4,0,0,1-3.11-3.56c-.57-6.49,0-.31-3.43-39.38A2,2,0,0,1,6.18,1H33.82a2,2,0,0,1,2,2.17L33.82,26A10,10,0,0,0,27,43.11Z"/><path class="cls-2" d="M28,44A18.53,18.53,0,0,1,9.53,27.06L7.26,1H33.82a2,2,0,0,1,2,2.17L33.82,26A10,10,0,0,0,28,44Z"/><path class="cls-3" d="M30.87,14.84l-.85,12A10,10,0,0,0,25.2,40.74a51,51,0,0,1-12.69-.3,2,2,0,0,1-1.68-1.84c-2-27.11-2.05-25.5-1.3-25.93,1.64-.95,6.74-3.4,10.47.33,3.14,3.14,7.27,1.89,9.46.86A1,1,0,0,1,30.87,14.84Z"/><path class="cls-4" d="M30.87,14.84l-.85,12A10,10,0,0,0,25.2,40.74a50.52,50.52,0,0,1-12.69-.3,2,2,0,0,1-1.68-1.84c-2-27.35-2.05-25.5-1.3-25.93,1.64-.95,6.74-3.4,10.47.33,3.14,3.14,7.27,1.89,9.46.86A1,1,0,0,1,30.87,14.84Z"/><path class="cls-3" d="M29.46,13.86c-2.19,1-6.32,2.28-9.46-.86-3.73-3.73-8.83-1.28-10.47-.33A1,1,0,0,0,9,13.6l0,.31c2.29-1,6-1.82,8.94,1.09,3.14,3.14,7.27,1.89,9.46.86a1,1,0,0,1,1.41,1l-.79,11.1A10,10,0,0,1,30,26.83l.85-12A1,1,0,0,0,29.46,13.86Z"/><path class="cls-5" d="M16,36a1,1,0,0,0-2,0A1,1,0,0,0,16,36Z"/><path class="cls-5" d="M21,32a1,1,0,0,0-2,0A1,1,0,0,0,21,32Z"/><path class="cls-5" d="M20,26a1,1,0,0,0-2,0A1,1,0,0,0,20,26Z"/><path class="cls-5" d="M27,23a1,1,0,0,0-2,0A1,1,0,0,0,27,23Z"/><path class="cls-5" d="M18,16a1,1,0,0,0-2,0A1,1,0,0,0,18,16Z"/><path class="cls-5" d="M15,22a1,1,0,0,0-2,0A1,1,0,0,0,15,22Z"/><path class="cls-6" d="M44,36a10,10,0,1,1-14-9.17A10,10,0,0,1,44,36Z"/><path class="cls-7" d="M30.75,45.46a9.15,9.15,0,0,1-3.94,1.08,9.83,9.83,0,0,1-3.16-3.06A18.37,18.37,0,0,0,28,44,10.29,10.29,0,0,0,30.75,45.46Z"/><path class="cls-1" d="M28,44a18.37,18.37,0,0,1-4.35-.52,9.57,9.57,0,0,1-1.21-2.54c.95,0,1.87-.11,2.76-.2A10.2,10.2,0,0,0,28,44Z"/><path class="cls-3" d="M25.2,40.74c-.89.09-1.81.16-2.76.2A10,10,0,0,1,26,30h0C26,29.74,22.14,35.23,25.2,40.74Z"/><path class="cls-8" d="M44,36a10,10,0,0,1-2,6A10,10,0,0,1,28,28,10,10,0,0,1,44,36Z"/><path class="cls-5" d="M33,32V31a1,1,0,0,1,2,0v1A1,1,0,0,1,33,32Z"/><path class="cls-5" d="M33,41V40a1,1,0,0,1,2,0v1A1,1,0,0,1,33,41Z"/><path class="cls-5" d="M30,37H29a1,1,0,0,1,0-2h1A1,1,0,0,1,30,37Z"/><path class="cls-5" d="M39,37H38a1,1,0,0,1,0-2h1A1,1,0,0,1,39,37Z"/><path class="cls-5" d="M31.17,34.17c-.49,0-.64-.22-1.41-1a1,1,0,0,1,1.41-1.41l.71.7A1,1,0,0,1,31.17,34.17Z"/><path class="cls-5" d="M37.54,40.54c-.5,0-.64-.23-1.42-1a1,1,0,0,1,1.42-1.42l.7.71A1,1,0,0,1,37.54,40.54Z"/><path class="cls-5" d="M31.17,37.83c-.49,0-.64.22-1.41,1a1,1,0,0,0,1.41,1.41l.71-.7A1,1,0,0,0,31.17,37.83Z"/><path class="cls-5" d="M37.54,31.46c-.5,0-.64.23-1.42,1a1,1,0,0,0,1.42,1.42l.7-.71A1,1,0,0,0,37.54,31.46Z"/><circle class="cls-5" cx="34" cy="36" r="4"/><path class="cls-9" d="M34,35a1,1,0,0,0-2,0A1,1,0,0,0,34,35Z"/><path class="cls-9" d="M36,37a1,1,0,0,0-2,0A1,1,0,0,0,36,37Z"/></g></svg>