<?xml version="1.0" encoding="utf-8"?>
<!-- Generator: Adobe Illustrator 24.0.0, SVG Export Plug-In . SVG Version: 6.00 Build 0)  -->
<svg version="1.1" xmlns="http://www.w3.org/2000/svg" xmlns:xlink="http://www.w3.org/1999/xlink" x="0px" y="0px"
	 viewBox="0 0 256 256" enable-background="new 0 0 256 256" xml:space="preserve">
<g id="Layer_1">
</g>
<g id="Layer_2">
</g>
<g id="Layer_3">
</g>
<g id="Layer_4">
</g>
<g id="Layer_5">
</g>
<g id="Layer_6">
</g>
<g id="Layer_7">
</g>
<g id="Layer_8">
</g>
<g id="Layer_9">
</g>
<g id="Layer_10">
</g>
<g id="Layer_11">
</g>
<g id="Layer_12">
</g>
<g id="Layer_13">
</g>
<g id="Layer_14">
</g>
<g id="Layer_15">
</g>
<g id="Layer_16">
</g>
<g id="Layer_17">
</g>
<g id="Layer_18">
</g>
<g id="Layer_19">
</g>
<g id="Layer_20">
</g>
<g id="Layer_21">
</g>
<g id="Layer_22">
</g>
<g id="Layer_23">
</g>
<g id="Layer_24">
</g>
<g id="Layer_25">
</g>
<g id="Layer_26">
</g>
<g id="Layer_27">
</g>
<g id="Layer_28">
</g>
<g id="Layer_29">
</g>
<g id="Layer_30">
</g>
<g id="Layer_31">
</g>
<g id="Layer_32">
</g>
<g id="Layer_33">
</g>
<g id="Layer_34">
</g>
<g id="Layer_35">
</g>
<g id="Layer_36">
</g>
<g id="Layer_37">
</g>
<g id="Layer_38">
</g>
<g id="Layer_39">
</g>
<g id="Layer_40">
</g>
<g id="Layer_41">
</g>
<g id="Layer_42">
</g>
<g id="Layer_43">
</g>
<g id="Layer_44">
</g>
<g id="Layer_45">
</g>
<g id="Layer_46">
</g>
<g id="Layer_47">
</g>
<g id="Layer_48">
</g>
<g id="Layer_49">
</g>
<g id="Layer_50">
</g>
<g id="Layer_51">
</g>
<g id="Layer_52">
</g>
<g id="Layer_53">
</g>
<g id="Layer_54">
</g>
<g id="Layer_55">
</g>
<g id="Layer_56">
</g>
<g id="Layer_57">
	<g>
		<g>
			<g>
				<path fill="#FCDD86" d="M124.466,128.038l-7.394-26.36c-0.731,0.779-1.664,1.368-2.724,1.68c-2.519,0.74-5.56,1.037-8.62,1.065
					l3.987,11.196c0.635,1.783,0.672,3.633,0.216,5.332c-0.739,2.754-2.774,5.11-5.663,6.139c-1.553,0.553-3.155,0.644-4.665,0.359
					l1.665,5.966c0.559,1.977,2.551,3.185,4.563,2.767l15.663-3.257C123.714,132.465,125.079,130.22,124.466,128.038z"/>
			</g>
		</g>
		<g>
			<g>
				<path fill="#F5C84C" d="M118.61,45.857l-5.232-0.411c0.576,0.288,1.139,0.616,1.676,1.008
					c5.203,3.806,6.301,11.126,2.443,16.291l-14.423,19.312c-0.762,0.965-2.029,1.297-3.142,0.918l0.001,0l-1.258,1.636
					l7.055,19.812c3.06-0.029,6.101-0.325,8.62-1.065c2.026-0.595,3.606-2.186,4.146-4.227l10.104-39.87
					C130.391,53.129,125.081,46.313,118.61,45.857z"/>
			</g>
		</g>
		<g>
			<g>
				<path fill="#F9D0B4" d="M109.716,115.619L98.674,84.612l1.258-1.637c-0.237-0.081-0.47-0.182-0.687-0.33l-14.256-9.7l-3.535,4.6
					c-1.857,2.417-2.362,5.612-1.339,8.484l12.682,35.615c1.664,4.672,6.8,7.11,11.472,5.447c2.889-1.029,4.924-3.385,5.663-6.139
					C110.388,119.253,110.351,117.402,109.716,115.619z"/>
			</g>
		</g>
		<g>
			<g>
				<path fill="#5290DB" d="M252.573,70.128c-1.741-2.848-5.463-3.747-8.313-2.007l-47.265,28.885
					c-3.734,2.282-8.021,3.488-12.397,3.488h-47.042c-3.34,0-6.047,2.708-6.047,6.047s2.707,6.047,6.047,6.047h47.042
					c6.602,0,13.07-1.82,18.704-5.262l47.266-28.885C253.416,76.7,254.314,72.979,252.573,70.128z"/>
			</g>
		</g>
		<g>
			<g>
				<path fill="#DAE6F1" d="M249.224,211.864H6.736c-2.34,0-4.236,1.897-4.236,4.236v16.724c0,2.34,1.897,4.236,4.236,4.236h242.487
					c2.34,0,4.236-1.897,4.236-4.236V216.1C253.46,213.761,251.563,211.864,249.224,211.864z"/>
			</g>
		</g>
		<g>
			<g>
				<path fill="#3A70BF" d="M13.128,237.061v6.92c0,1.676,1.359,3.035,3.035,3.035h11.981c1.676,0,3.035-1.359,3.035-3.035v-6.92
					H13.128z"/>
			</g>
		</g>
		<g>
			<g>
				<path fill="#3A70BF" d="M224.781,237.061v6.92c0,1.676,1.359,3.035,3.035,3.035h11.981c1.676,0,3.035-1.359,3.035-3.035v-6.92
					H224.781z"/>
			</g>
		</g>
		<g>
			<g>
				<path fill="#3A70BF" d="M13.287,201.785c-2.34,0-4.236,1.897-4.236,4.236v5.843h163.477l4.607-10.079H13.287z"/>
			</g>
		</g>
		<g>
			<g>
				<path fill="#5290DB" d="M241.079,183.644H216.53l8.823,28.22h22.563v-21.383C247.917,186.705,244.855,183.644,241.079,183.644z"
					/>
			</g>
		</g>
		<g>
			<g>
				<path fill="#5290DB" d="M198.578,183.644h-8.757c-2.676,0-5.106,1.561-6.219,3.995l-11.075,24.226h34.874L198.578,183.644z"/>
			</g>
		</g>
		<g>
			<g>
				<path fill="#DAE6F1" d="M193.925,111.343c-3.028,0.815-6.161,1.245-9.329,1.245h-8.234l31.038,99.275h17.952L193.925,111.343z"
					/>
			</g>
		</g>
		<g>
			<g>
				<path fill="#70D6F9" d="M238.158,66.988c-1.536-2.303-4.617-2.983-6.979-1.54l-30.983,18.934
					c-2.498,1.526-3.225,4.824-1.602,7.26l2.077,3.116l39.789-24.316L238.158,66.988z"/>
			</g>
		</g>
		<g>
			<g>
				<path fill="#70D6F9" d="M17.2,164.9h-2.3v-2.3c0-1.7-1.4-3.2-3.2-3.2s-3.2,1.4-3.2,3.2v2.3H6.2c-1.7,0-3.2,1.4-3.2,3.2
					c0,1.8,1.4,3.2,3.2,3.2h2.3v2.3c0,1.7,1.4,3.2,3.2,3.2s3.2-1.4,3.2-3.2v-2.3h2.3c1.7,0,3.2-1.4,3.2-3.2
					C20.4,166.3,19,164.9,17.2,164.9z"/>
			</g>
		</g>
		<g>
			<g>
				<path fill="#F5C84C" d="M174.8,30.85c-4.5-0.8-8-4.3-8.9-8.7c0-0.2-0.4-0.2-0.4,0c-0.9,4.4-4.4,7.9-8.9,8.7
					c-0.2,0-0.2,0.3,0,0.4c4.5,0.8,8,4.3,8.9,8.7c0,0.2,0.4,0.2,0.4,0c0.9-4.4,4.4-7.9,8.9-8.7C175,31.15,175,30.85,174.8,30.85z"/>
			</g>
		</g>
		<g>
			<g>
				<path fill="#87D147" d="M223.778,123.938c-2.511-0.447-4.464-2.399-4.966-4.855c0-0.112-0.223-0.112-0.223,0
					c-0.502,2.455-2.455,4.408-4.966,4.855c-0.112,0-0.112,0.167,0,0.223c2.511,0.446,4.464,2.399,4.966,4.855
					c0,0.112,0.223,0.112,0.223,0c0.502-2.455,2.455-4.408,4.966-4.855C223.89,124.106,223.89,123.938,223.778,123.938z"/>
			</g>
		</g>
		<g>
			<g>
				<path fill="#FC657E" d="M176.8,50.5c-1.878,0-3.4,1.522-3.4,3.4c0,1.878,1.522,3.4,3.4,3.4c1.878,0,3.4-1.522,3.4-3.4
					C180.2,52.022,178.678,50.5,176.8,50.5z"/>
			</g>
		</g>
		<g>
			<g>
				<path fill="#F5C84C" d="M17.8,140.5c-1.878,0-3.4,1.522-3.4,3.4c0,1.878,1.522,3.4,3.4,3.4c1.878,0,3.4-1.522,3.4-3.4
					C21.2,142.022,19.678,140.5,17.8,140.5z"/>
			</g>
		</g>
		<g>
			<g>
				<path fill="#FCA265" d="M115.054,46.454c-5.11-3.738-12.273-2.685-16.091,2.366L83.988,68.631
					c-0.994,1.295-0.694,3.16,0.656,4.078l14.602,9.936c1.233,0.839,2.904,0.582,3.828-0.588l14.423-19.312
					C121.354,57.58,120.257,50.26,115.054,46.454z"/>
			</g>
		</g>
		<g>
			<g>
				<path fill="#F9D0B4" d="M167.254,98.38c-0.998-1.448-2.432-2.619-4.201-3.291l-30.772-11.684l-0.431-2.019
					c-0.215,0.128-0.443,0.24-0.696,0.309l-8.857,2.436l-3.293,12.995c0.701,0.548,1.477,1.008,2.331,1.332l11.466,4.354
					c1.107-1.41,2.823-2.318,4.754-2.318h30.766C168.056,99.748,167.705,99.034,167.254,98.38z"/>
			</g>
		</g>
		<g>
			<g>
				<path fill="#FCA265" d="M133.186,78.399l-4.479-19.63c-0.038,0.164-0.06,0.328-0.108,0.491l-6.303,24.871l8.857-2.436
					C132.591,81.301,133.479,79.861,133.186,78.399z"/>
			</g>
		</g>
		<g>
			<g>
				<path fill="#F9D0B4" d="M139.383,23.459c-0.522-8.5-7.837-14.968-16.338-14.446c-8.5,0.522-14.968,7.837-14.446,16.337
					c0.522,8.5,7.837,14.968,16.338,14.446S139.905,31.96,139.383,23.459z"/>
			</g>
		</g>
		<g>
			<g>
				<g>
					<g>
						<path d="M141.878,23.306c-0.606-9.863-9.115-17.394-18.986-16.787c-9.863,0.606-17.394,9.123-16.787,18.986
							c0.293,4.777,2.43,9.155,6.016,12.325c3.304,2.922,7.474,4.497,11.846,4.497c0.373,0,0.748-0.012,1.124-0.035
							C134.954,41.686,142.484,33.169,141.878,23.306z M124.784,37.302c-3.444,0.208-6.766-0.931-9.352-3.217
							s-4.125-5.442-4.337-8.887c-0.437-7.111,4.993-13.252,12.104-13.689c0.269-0.017,0.536-0.024,0.801-0.024
							c6.765,0,12.467,5.286,12.888,12.128C137.325,30.724,131.895,36.864,124.784,37.302z"/>
					</g>
				</g>
			</g>
		</g>
		<g>
			<g>
				<g>
					<g>
						<path d="M122.146,53.721c-0.562-3.749-2.556-7.046-5.616-9.284c-6.172-4.517-14.948-3.227-19.561,2.875L82.004,67.11
							c-0.89,1.16-1.268,2.653-1.036,4.098c0.232,1.444,1.059,2.745,2.269,3.569l14.602,9.936c0.907,0.616,1.945,0.916,2.979,0.916
							c1.597,0,3.184-0.715,4.258-2.076L119.5,64.241C121.768,61.205,122.707,57.469,122.146,53.721z M115.494,61.249L101.11,80.508
							c-0.11,0.141-0.312,0.172-0.459,0.07L86.05,70.644c-0.081-0.055-0.13-0.132-0.146-0.229s0.007-0.185,0.077-0.275
							l14.976-19.813c2.977-3.937,8.639-4.769,12.621-1.855c1.974,1.444,3.26,3.571,3.623,5.99
							C117.563,56.88,116.957,59.29,115.494,61.249z"/>
					</g>
				</g>
			</g>
		</g>
		<g>
			<g>
				<path d="M170.466,99.105c-0.314-0.768-0.703-1.489-1.154-2.145c-1.325-1.923-3.183-3.378-5.372-4.209l-29.499-11.2l-0.078-0.363
					c-0.288-1.35-1.616-2.206-2.967-1.923c-1.351,0.289-2.211,1.617-1.923,2.968l0.362,1.694c0.177,0.83,0.764,1.514,1.558,1.814
					l30.771,11.684c1.236,0.47,2.284,1.29,3.031,2.373c0.248,0.36,0.464,0.764,0.643,1.199c0.396,0.969,1.33,1.555,2.315,1.555
					c0.315,0,0.636-0.061,0.946-0.188C170.377,101.843,170.989,100.383,170.466,99.105z"/>
			</g>
		</g>
		<g>
			<g>
				<path d="M133.338,100.343l-11.118-4.222c-0.464-0.176-0.925-0.423-1.371-0.736c-1.128-0.792-2.689-0.519-3.482,0.611
					c-0.792,1.13-0.519,2.689,0.611,3.482c0.787,0.552,1.618,0.995,2.469,1.317l11.116,4.221c0.292,0.111,0.592,0.164,0.887,0.164
					c1.008,0,1.958-0.615,2.338-1.613C135.278,102.276,134.629,100.833,133.338,100.343z"/>
			</g>
		</g>
		<g>
			<g>
				<path d="M129.034,49.386c-2.43-3.49-6.261-5.742-10.228-6.021l-4.96-0.391c-1.373-0.099-2.58,0.92-2.688,2.296
					s0.919,2.58,2.296,2.688l4.981,0.393c2.493,0.175,4.921,1.63,6.496,3.892c1.394,2.003,1.857,4.305,1.246,6.402l-10.097,39.846
					c-0.315,1.19-1.226,2.112-2.435,2.468c-1.93,0.566-4.38,0.888-7.285,0.954c-1.38,0.031-2.474,1.176-2.442,2.556
					c0.031,1.361,1.144,2.443,2.499,2.443c0.019,0,0.039,0,0.058-0.001c3.343-0.076,6.229-0.465,8.579-1.155
					c2.858-0.839,5.104-3.132,5.866-6.011l10.08-39.784C132.013,56.491,131.296,52.637,129.034,49.386z"/>
			</g>
		</g>
		<g>
			<g>
				<path d="M135.624,77.844l-4.399-19.281c-0.308-1.348-1.654-2.193-2.994-1.882c-1.346,0.308-2.188,1.647-1.881,2.993
					l4.385,19.216c0.035,0.175-0.072,0.349-0.243,0.396l-7.979,2.193c-1.332,0.365-2.114,1.741-1.748,3.073
					c0.305,1.109,1.312,1.838,2.409,1.838c0.219,0,0.442-0.029,0.664-0.091l7.979-2.193
					C134.506,83.367,136.185,80.645,135.624,77.844z"/>
			</g>
		</g>
		<g>
			<g>
				<g>
					<g>
						<g>
							<path d="M254.706,68.824c-2.458-4.02-7.728-5.294-11.75-2.836L195.69,94.873c-3.341,2.042-7.177,3.121-11.094,3.121h-47.042
								c-4.713,0-8.547,3.834-8.547,8.547s3.834,8.548,8.547,8.548h47.042c7.061,0,13.979-1.946,20.007-5.629l47.266-28.885
								C255.89,78.117,257.163,72.846,254.706,68.824z M249.262,76.31l-47.265,28.884c-5.243,3.203-11.26,4.896-17.4,4.896h-47.042
								c-1.956,0-3.547-1.592-3.547-3.548s1.591-3.547,3.547-3.547h47.042c4.837,0,9.575-1.333,13.701-3.855l47.264-28.884
								c1.67-1.018,3.858-0.49,4.877,1.176C251.459,73.101,250.931,75.289,249.262,76.31z"/>
						</g>
					</g>
				</g>
			</g>
		</g>
		<g>
			<g>
				<g>
					<g>
						<path d="M249.224,209.364H6.736c-3.714,0-6.736,3.021-6.736,6.736v16.724c0,3.715,3.022,6.736,6.736,6.736h242.487
							c3.714,0,6.736-3.021,6.736-6.736v-16.724C255.96,212.386,252.938,209.364,249.224,209.364z M250.96,232.824
							c0,0.957-0.779,1.736-1.736,1.736H6.736c-0.958,0-1.736-0.779-1.736-1.736v-16.724c0-0.957,0.779-1.736,1.736-1.736h242.487
							c0.958,0,1.736,0.779,1.736,1.736V232.824z"/>
					</g>
				</g>
			</g>
		</g>
		<g>
			<g>
				<path d="M31.179,235.688c-1.381,0-2.5,1.119-2.5,2.5v5.793c0,0.295-0.24,0.534-0.535,0.534H16.163
					c-0.295,0-0.535-0.239-0.535-0.534v-6.044c0-1.381-1.119-2.5-2.5-2.5s-2.5,1.119-2.5,2.5v6.044c0,3.052,2.483,5.534,5.535,5.534
					h11.981c3.052,0,5.535-2.482,5.535-5.534v-5.793C33.679,236.808,32.56,235.688,31.179,235.688z"/>
			</g>
		</g>
		<g>
			<g>
				<path d="M242.832,235.458c-1.381,0-2.5,1.119-2.5,2.5v6.023c0,0.295-0.24,0.534-0.535,0.534h-11.981
					c-0.295,0-0.535-0.239-0.535-0.534v-6.106c0-1.381-1.119-2.5-2.5-2.5s-2.5,1.119-2.5,2.5v6.106c0,3.052,2.483,5.534,5.535,5.534
					h11.981c3.052,0,5.535-2.482,5.535-5.534v-6.023C245.332,236.577,244.212,235.458,242.832,235.458z"/>
			</g>
		</g>
		<g>
			<g>
				<path d="M176.363,199.285H13.288c-3.714,0-6.736,3.021-6.736,6.736v4.937c0,1.381,1.119,2.5,2.5,2.5s2.5-1.119,2.5-2.5v-4.937
					c0-0.957,0.779-1.736,1.736-1.736h163.075c1.381,0,2.5-1.119,2.5-2.5S177.744,199.285,176.363,199.285z"/>
			</g>
		</g>
		<g>
			<g>
				<path d="M241.079,181.144h-23.6c-1.381,0-2.5,1.119-2.5,2.5s1.119,2.5,2.5,2.5h23.6c2.392,0,4.337,1.946,4.337,4.338v20.521
					c0,1.381,1.119,2.5,2.5,2.5s2.5-1.119,2.5-2.5v-20.521C250.417,185.332,246.228,181.144,241.079,181.144z"/>
			</g>
		</g>
		<g>
			<g>
				<path d="M198.167,181.144h-8.346c-3.644,0-6.977,2.142-8.492,5.456l-10.875,23.788c-0.574,1.255-0.021,2.738,1.234,3.313
					c0.337,0.154,0.69,0.228,1.038,0.228c0.948,0,1.855-0.543,2.275-1.462l10.875-23.788c0.704-1.539,2.252-2.534,3.944-2.534h8.346
					c1.381,0,2.5-1.119,2.5-2.5S199.548,181.144,198.167,181.144z"/>
			</g>
		</g>
		<g>
			<g>
				<g>
					<path d="M209.517,210.252l-30.518-97.61c-0.412-1.317-1.813-2.054-3.132-1.64c-1.318,0.412-2.052,1.813-1.64,3.132
						l30.518,97.61c0.334,1.069,1.321,1.755,2.385,1.755c0.248,0,0.499-0.037,0.747-0.115
						C209.194,212.972,209.929,211.57,209.517,210.252z"/>
				</g>
			</g>
			<g>
				<g>
					<path d="M227.47,210.256l-30.912-98.872c-0.412-1.318-1.816-2.054-3.132-1.64c-1.318,0.412-2.052,1.813-1.64,3.132
						l30.912,98.872c0.334,1.069,1.321,1.755,2.386,1.755c0.247,0,0.498-0.037,0.747-0.115
						C227.147,212.976,227.882,211.574,227.47,210.256z"/>
				</g>
			</g>
		</g>
		<g>
			<g>
				<path d="M242.174,68.504l-1.936-2.903c-2.29-3.435-6.842-4.44-10.363-2.285l-30.982,18.934
					c-1.794,1.096-3.031,2.829-3.485,4.882c-0.454,2.054-0.061,4.148,1.106,5.898l1.677,2.515c0.482,0.723,1.274,1.113,2.083,1.113
					c0.477,0,0.958-0.136,1.384-0.42c1.149-0.766,1.459-2.318,0.693-3.467l-1.677-2.515c-0.405-0.607-0.541-1.334-0.384-2.047
					c0.157-0.712,0.586-1.313,1.209-1.693l30.983-18.935c1.221-0.746,2.801-0.398,3.595,0.793l1.936,2.903
					c0.766,1.148,2.318,1.46,3.467,0.693C242.629,71.205,242.94,69.652,242.174,68.504z"/>
			</g>
		</g>
		<g>
			<g>
				<path fill="#FC657E" d="M149.311,191.102c-3.316-0.135-7.449-1.063-10.638-2.811l-7.017-3.847
					c-1.707-0.936-3.782-0.9-5.456,0.094l-6.108,3.629c-2.209,1.312-5.077,0.642-6.443-1.534c-0.442-0.704-0.777-1.408-1.054-1.936
					c-0.664-1.268-2.482-1.301-3.183-0.019l-3.528,12.753c-0.252,2.031,1.239,4.337,3.235,4.354h30.063
					c8.463,0.075,11.36-4.618,12.239-6.575C152.254,193.36,151.169,191.177,149.311,191.102z"/>
			</g>
		</g>
		<g>
			<g>
				<path fill="#FC657E" d="M57.98,167.347c0.374-1.911-0.29-3.877-1.746-5.17l-5.312-4.719c-1.921-1.706-2.152-4.642-0.494-6.604
					c0.537-0.635,1.106-1.168,1.525-1.592c1.006-1.017,0.486-2.76-0.948-3.038l-13.222,0.51c-2.012,0.376-3.124,2.296-2.535,4.203
					l8.872,28.725c2.498,8.087,7.47,9.543,9.601,9.787c2.015,0.231,3.766-1.466,3.274-3.259c-0.878-3.2-1.248-7.42-0.55-10.989
					L57.98,167.347z"/>
			</g>
		</g>
		<g>
			<g>
				<path fill="#F5C84C" d="M101.269,133.417l-1.665-5.966c-3.035-0.572-5.695-2.687-6.806-5.806l-4.344-12.2l-5.703,14.648
					c-0.739,1.917,0.13,4.079,1.99,4.951l14.485,6.792c1.238,0.58,2.614,0.451,3.693-0.203
					C102.143,135.133,101.538,134.367,101.269,133.417z"/>
			</g>
		</g>
		<g>
			<g>
				<path fill="#F9D0B4" d="M125.441,149.603c-0.04-1.833-0.176-3.663-0.407-5.482c-0.306-2.41-0.78-4.797-1.416-7.141l-1.189-4.379
					c-0.29,0.143-0.601,0.257-0.934,0.326l-15.663,3.257c-0.659,0.137-1.312,0.084-1.917-0.098l1.439,4.693
					c0.5,1.629,0.833,3.305,0.994,5.001l3.633,38.282c0.845-0.586,2.089-0.37,2.614,0.635c0.269,0.513,0.593,1.193,1.017,1.877
					c1.355,2.187,4.269,2.906,6.481,1.592l6.107-3.628L125.441,149.603z"/>
			</g>
		</g>
		<g>
			<g>
				<path fill="#F9D0B4" d="M99.225,135.836l-14.485-6.792c-0.324-0.152-0.605-0.354-0.865-0.576
					c-0.797,1.505-1.787,3.363-2.471,4.596c-0.471,0.85-1.213,1.513-2.108,1.891l-27.532,11.623
					c0.815,0.628,0.986,1.878,0.189,2.684c-0.407,0.412-0.957,0.927-1.48,1.539c-1.672,1.955-1.473,4.95,0.45,6.658l5.311,4.718
					l31.714-12.762c1.361-0.488,2.695-1.042,3.998-1.659c2.913-1.379,5.157-3.862,6.333-6.862l1.865-4.76
					C99.834,136.074,99.525,135.977,99.225,135.836z"/>
			</g>
		</g>
		<g>
			<g>
				<path fill="#DAE6F1" d="M58.249,143.84l-6.486,2.738c0.815,0.628,0.986,1.878,0.189,2.684c-0.407,0.412-0.957,0.927-1.48,1.539
					c-1.672,1.955-1.473,4.95,0.45,6.658l5.311,4.718l8.801-3.542L58.249,143.84z"/>
			</g>
		</g>
		<g>
			<g>
				<path fill="#DAE6F1" d="M126.017,176.09l-16.69,1.078l0.654,6.894c0.845-0.586,2.089-0.37,2.614,0.635
					c0.269,0.513,0.593,1.193,1.017,1.877c1.355,2.187,4.269,2.906,6.481,1.592l6.107-3.628L126.017,176.09z"/>
			</g>
		</g>
		<g>
			<g>
				<path d="M112.071,114.78l-10.584-29.725l0.218-0.284c0.842-1.095,0.636-2.664-0.458-3.506c-1.094-0.84-2.664-0.635-3.505,0.459
					l-1.048,1.363c-0.518,0.673-0.658,1.563-0.373,2.362l11.041,31.008c0.444,1.246,0.498,2.576,0.157,3.846
					c-0.553,2.062-2.081,3.718-4.087,4.432c-1.631,0.583-3.388,0.492-4.953-0.25c-1.563-0.742-2.744-2.049-3.325-3.68L82.47,85.19
					c-0.741-2.081-0.38-4.37,0.967-6.122l3.091-4.022c0.841-1.095,0.636-2.664-0.459-3.506c-1.094-0.84-2.664-0.636-3.506,0.459
					l-3.091,4.022c-2.385,3.104-3.025,7.159-1.712,10.847l12.682,35.615c1.028,2.889,3.121,5.203,5.891,6.519
					c1.563,0.742,3.235,1.115,4.916,1.115c1.298,0,2.6-0.223,3.859-0.671c3.554-1.265,6.26-4.198,7.239-7.846
					C112.952,119.346,112.856,116.987,112.071,114.78z"/>
			</g>
		</g>
		<g>
			<g>
				<g>
					<g>
						<path d="M153.383,190.965c-0.888-1.435-2.334-2.295-3.971-2.361c-3.31-0.135-6.964-1.095-9.538-2.506l-7.016-3.847
							c-2.471-1.354-5.512-1.304-7.936,0.137l-6.107,3.63c-1.045,0.618-2.413,0.299-3.05-0.715c-0.281-0.448-0.527-0.93-0.744-1.354
							l-0.212-0.411c-0.737-1.408-2.182-2.292-3.771-2.307c-0.014,0-0.026,0-0.04,0c-1.575,0-3.021,0.858-3.78,2.248
							c-0.092,0.169-0.165,0.348-0.216,0.533l-3.527,12.753c-0.032,0.117-0.056,0.236-0.071,0.357
							c-0.228,1.837,0.381,3.785,1.629,5.211c1.09,1.245,2.534,1.938,4.087,1.952h30.041c0.075,0.001,0.148,0.001,0.223,0.001
							c9.651,0,13.226-5.619,14.319-8.051C154.478,194.511,154.358,192.541,153.383,190.965z M149.142,194.186
							c-0.86,1.913-3.267,5.101-9.78,5.101c-0.059,0-0.119,0-0.179-0.001h-30.041c-0.053,0-0.19-0.066-0.347-0.245
							c-0.273-0.313-0.443-0.775-0.438-1.169l2.877-10.403c0.093,0.162,0.192,0.327,0.297,0.494
							c2.066,3.291,6.479,4.348,9.837,2.354l6.108-3.63c0.908-0.541,2.05-0.561,2.978-0.051l7.016,3.847
							c3.235,1.774,7.589,2.937,11.662,3.114C149.194,193.694,149.256,193.932,149.142,194.186z"/>
					</g>
				</g>
			</g>
		</g>
		<g>
			<g>
				<g>
					<g>
						<path d="M60.434,167.826c0.541-2.766-0.432-5.646-2.54-7.519l-5.312-4.719c-0.908-0.807-1.018-2.207-0.245-3.121
							c0.343-0.406,0.728-0.787,1.067-1.123l0.326-0.324c1.118-1.129,1.521-2.774,1.053-4.293c-0.468-1.52-1.733-2.652-3.3-2.958
							c-0.189-0.036-0.383-0.049-0.574-0.044l-13.222,0.51c-0.123,0.005-0.244,0.019-0.364,0.041
							c-1.646,0.309-3.073,1.284-3.914,2.678c-0.844,1.399-1.044,3.12-0.55,4.721l8.872,28.725
							c2.945,9.536,9.167,11.242,11.706,11.532c0.221,0.025,0.441,0.038,0.66,0.038c1.643,0,3.201-0.7,4.265-1.942
							c1.097-1.28,1.478-2.921,1.044-4.5c-0.876-3.192-1.071-6.966-0.507-9.848L60.434,167.826z M55.526,166.867l-1.536,7.854
							c-0.708,3.623-0.494,8.124,0.573,12.056c-0.075,0.089-0.282,0.218-0.559,0.188c-1.563-0.18-5.422-1.321-7.497-8.04
							l-8.872-28.726c-0.097-0.313-0.024-0.532,0.053-0.661c0.089-0.148,0.235-0.256,0.425-0.315l10.785-0.416
							c-0.125,0.138-0.253,0.282-0.38,0.433c-2.51,2.97-2.177,7.494,0.743,10.088l5.312,4.719
							C55.364,164.748,55.729,165.829,55.526,166.867z"/>
					</g>
				</g>
			</g>
		</g>
		<g>
			<g>
				<path d="M104.776,134.82c-0.571-1.257-2.053-1.815-3.31-1.243c-0.222,0.1-0.671,0.232-1.18-0.005l-14.485-6.793
					c-0.669-0.313-0.984-1.099-0.722-1.78l5.474-14.06c0.501-1.287-0.136-2.736-1.422-3.237c-1.287-0.498-2.736,0.137-3.237,1.423
					l-5.477,14.067c-1.206,3.127,0.227,6.691,3.261,8.114l14.485,6.793c0.861,0.403,1.788,0.605,2.716,0.605
					c0.903,0,1.808-0.191,2.653-0.575C104.791,137.56,105.347,136.078,104.776,134.82z"/>
			</g>
		</g>
		<g>
			<g>
				<path d="M126.874,127.363l-7.279-25.951c-0.373-1.33-1.753-2.107-3.083-1.732c-1.329,0.373-2.104,1.753-1.732,3.082
					l7.279,25.951c0.145,0.515-0.034,0.92-0.153,1.116s-0.397,0.541-0.92,0.65l-15.664,3.257c-0.728,0.146-1.447-0.291-1.646-0.992
					l-1.381-4.947c-0.371-1.331-1.754-2.107-3.08-1.736c-1.33,0.371-2.107,1.75-1.736,3.08l1.383,4.955
					c0.791,2.799,3.369,4.669,6.181,4.669c0.428,0,0.862-0.043,1.296-0.134l15.664-3.257c1.734-0.36,3.255-1.436,4.175-2.948
					S127.352,129.067,126.874,127.363z"/>
			</g>
		</g>
		<g>
			<g>
				<g>
					<path d="M127.94,149.549c-0.042-1.914-0.185-3.846-0.426-5.743c-0.32-2.517-0.819-5.034-1.483-7.481l-1-3.685
						c-0.362-1.333-1.736-2.121-3.068-1.758c-1.333,0.362-2.119,1.735-1.757,3.068l1,3.685c0.604,2.225,1.058,4.513,1.349,6.802
						c0.219,1.725,0.35,3.48,0.387,5.221l0.742,34.128c0.03,1.361,1.143,2.445,2.499,2.445c0.018,0,0.037,0,0.055-0.001
						c1.38-0.029,2.475-1.173,2.445-2.554L127.94,149.549z"/>
				</g>
			</g>
			<g>
				<g>
					<path d="M108.836,145.543c-0.177-1.861-0.544-3.712-1.093-5.497l-1.293-4.217c-0.405-1.32-1.802-2.059-3.123-1.658
						c-1.32,0.405-2.062,1.804-1.657,3.123l1.293,4.218c0.449,1.464,0.75,2.979,0.896,4.504l3.565,37.563
						c0.123,1.294,1.211,2.264,2.486,2.264c0.079,0,0.159-0.004,0.239-0.011c1.375-0.131,2.383-1.351,2.252-2.726L108.836,145.543z"
						/>
				</g>
			</g>
		</g>
		<g>
			<g>
				<g>
					<path d="M100.89,134.23c-1.283-0.503-2.736,0.129-3.24,1.416l-1.699,4.335c-0.965,2.464-2.768,4.423-5.076,5.516
						c-1.216,0.576-2.485,1.104-3.86,1.599l-31.219,12.563c-1.281,0.516-1.901,1.972-1.386,3.253c0.393,0.975,1.33,1.567,2.32,1.567
						c0.311,0,0.626-0.059,0.932-0.182l31.131-12.529c1.44-0.517,2.861-1.106,4.224-1.752c3.463-1.64,6.159-4.556,7.59-8.21
						l1.699-4.335C102.809,136.186,102.175,134.734,100.89,134.23z"/>
				</g>
			</g>
			<g>
				<g>
					<path d="M84.767,126.788c-1.218-0.648-2.733-0.184-3.38,1.036c-0.732,1.38-1.569,2.946-2.17,4.028
						c-0.196,0.355-0.514,0.639-0.894,0.8l-27.192,11.48c-1.272,0.536-1.868,2.003-1.331,3.275c0.403,0.954,1.33,1.528,2.304,1.528
						c0.324,0,0.654-0.063,0.971-0.198l27.193-11.48c1.406-0.594,2.586-1.652,3.322-2.981c0.612-1.104,1.467-2.701,2.213-4.108
						C86.451,128.948,85.986,127.435,84.767,126.788z"/>
				</g>
			</g>
		</g>
		<g>
			<g>
				<path d="M66.985,156.89l-6.063-13.221c-0.576-1.256-2.061-1.807-3.314-1.23c-1.255,0.575-1.806,2.06-1.23,3.314l6.063,13.221
					c0.421,0.918,1.327,1.459,2.274,1.459c0.349,0,0.703-0.073,1.041-0.229C67.01,159.629,67.561,158.145,66.985,156.89z"/>
			</g>
		</g>
		<g>
			<g>
				<path d="M125.124,173.643L110,174.619c-1.378,0.089-2.423,1.278-2.333,2.656c0.085,1.323,1.185,2.339,2.492,2.339
					c0.054,0,0.109-0.002,0.164-0.005l15.123-0.977c1.378-0.089,2.423-1.278,2.333-2.656
					C127.69,174.598,126.49,173.561,125.124,173.643z"/>
			</g>
		</g>
	</g>
</g>
<g id="Layer_58">
</g>
<g id="Layer_59">
</g>
<g id="Layer_60">
</g>
<g id="Layer_61">
</g>
<g id="Layer_62">
</g>
<g id="Layer_63">
</g>
<g id="Layer_64">
</g>
<g id="Layer_65">
</g>
<g id="Layer_66">
</g>
<g id="Layer_67">
</g>
<g id="Layer_68">
</g>
<g id="Layer_69">
</g>
<g id="Layer_70">
</g>
<g id="Layer_71">
</g>
<g id="Layer_72">
</g>
<g id="Layer_73">
</g>
<g id="Layer_74">
</g>
<g id="Layer_75">
</g>
</svg>
