<?xml version="1.0" encoding="iso-8859-1"?>
<!-- Generator: Adobe Illustrator 22.0.1, SVG Export Plug-In . SVG Version: 6.00 Build 0)  -->
<svg version="1.1" id="Icons" xmlns="http://www.w3.org/2000/svg" xmlns:xlink="http://www.w3.org/1999/xlink" x="0px" y="0px"
	 viewBox="0 0 512 512" style="enable-background:new 0 0 512 512;" xml:space="preserve">
<g>
	<g>
		<path id="XMLID_1189_" style="fill:#2C7294;" d="M512,255.904c0,70.692-28.654,134.692-74.981,181.019
			S326.692,511.904,256,511.904S121.308,483.25,74.981,436.924S0,326.597,0,255.904S28.654,121.212,74.981,74.885
			S185.308-0.096,256-0.096s134.692,28.654,181.019,74.981S512,185.212,512,255.904z"/>
		<path id="XMLID_1649_" style="fill:#95D8FD;" d="M444,82.144v173.755v173.755c-4.44,4.805-9.06,9.437-13.851,13.887
			s-9.754,8.718-14.879,12.792c-0.135,0.11-0.27,0.217-0.405,0.324s-0.27,0.211-0.405,0.316
			c-11.955,9.435-24.772,17.827-38.315,25.039s-27.81,13.241-42.665,17.951c-12.22,3.88-24.837,6.865-37.776,8.88
			s-26.199,3.06-39.704,3.06s-26.765-1.045-39.704-3.06s-25.556-5-37.776-8.88c-13.22-4.19-25.975-9.428-38.167-15.614
			s-23.823-13.321-34.792-21.306c-1.355-0.985-2.703-1.983-4.04-2.994s-2.665-2.036-3.98-3.076l-0.405-0.32l-0.405-0.32
			c-5.51-4.385-10.835-8.99-15.961-13.805S70.715,432.689,66,427.464V255.899V84.334c5.3-5.865,10.868-11.485,16.684-16.837
			s11.881-10.437,18.176-15.232c0.015-0.095,0.033-0.193,0.051-0.29s0.039-0.195,0.059-0.29c0.325-1.59,0.9-3.075,1.68-4.416
			s1.765-2.539,2.91-3.554c1.285-1.145,2.77-2.058,4.39-2.684s3.375-0.966,5.2-0.966h1.57h1.57
			c19.88-12.71,41.635-22.75,64.756-29.612S230.655-0.096,256-0.096s49.832,3.685,72.954,10.547s44.876,16.902,64.756,29.612h0.185
			h0.185c3.08,0,5.97,0.978,8.345,2.666s4.235,4.089,5.255,6.934c6.56,4.83,12.88,9.965,18.94,15.385S438.48,76.174,444,82.144z"/>
		<path id="XMLID_1642_" style="fill:#D0F4FA;" d="M444,82.144v173.755v173.755c-4.44,4.805-9.06,9.437-13.851,13.887
			s-9.754,8.718-14.879,12.792c-0.135,0.11-0.27,0.217-0.405,0.324s-0.27,0.211-0.405,0.316
			c-11.955,9.435-24.772,17.827-38.315,25.039s-27.81,13.241-42.665,17.951c-12.22,3.88-24.837,6.865-37.776,8.88
			s-26.199,3.06-39.704,3.06s-26.765-1.045-39.704-3.06s-25.556-5-37.776-8.88c-13.22-4.19-25.975-9.428-38.167-15.614
			s-23.823-13.321-34.792-21.306V253.379V43.714c1.285-1.145,2.77-2.058,4.39-2.684s3.375-0.966,5.2-0.966h1.57h1.57
			c19.88-12.71,41.635-22.75,64.756-29.612S230.655-0.096,256-0.096s49.832,3.685,72.954,10.547s44.876,16.902,64.756,29.612h0.185
			h0.185c3.08,0,5.97,0.978,8.345,2.666s4.235,4.089,5.255,6.934c6.56,4.83,12.88,9.965,18.94,15.385S438.48,76.174,444,82.144z"/>
		<path id="XMLID_1595_" style="fill:#FC646F;" d="M408.2,218.694c-0.735,3.315-2.567,6.16-5.065,8.176s-5.66,3.204-9.055,3.204
			H254.615H115.15c-1.825,0-3.58-0.34-5.2-0.966s-3.105-1.539-4.39-2.684c-1.145-1.015-2.13-2.215-2.91-3.559
			s-1.355-2.831-1.68-4.421c-5.625-27.7-8.448-55.395-8.466-83.09s2.766-55.39,8.356-83.09c0.015-0.095,0.033-0.193,0.051-0.29
			s0.039-0.195,0.059-0.29c0.325-1.59,0.9-3.075,1.68-4.416s1.765-2.539,2.91-3.554c1.285-1.145,2.77-2.058,4.39-2.684
			s3.375-0.966,5.2-0.966h139.465H394.08c3.08,0,5.97,0.978,8.345,2.666s4.235,4.089,5.255,6.934c0.105,0.285,0.2,0.577,0.286,0.875
			s0.164,0.6,0.234,0.905c6.2,27.875,9.3,55.75,9.3,83.625S414.4,190.819,408.2,218.694z"/>
		<path id="XMLID_1578_" style="fill:#FB80A5;" d="M408.2,218.694c-0.735,3.315-2.567,6.16-5.065,8.176s-5.66,3.204-9.055,3.204
			H282.115H170.15c-2.67,0-5.195-0.732-7.365-2.024s-3.985-3.141-5.235-5.376c-0.03-0.04-0.055-0.083-0.079-0.126
			s-0.046-0.089-0.071-0.134c-0.325-0.61-0.61-1.25-0.85-1.914s-0.435-1.351-0.58-2.056c-0.335-1.645-0.66-3.29-0.975-4.934
			s-0.62-3.286-0.915-4.926c-0.235-1.335-0.468-2.67-0.694-4.005s-0.446-2.67-0.656-4.005c-0.175-1.085-0.345-2.172-0.51-3.261
			s-0.325-2.179-0.48-3.269c-0.335-2.33-0.65-4.66-0.944-6.989s-0.566-4.656-0.816-6.981c-0.03-0.225-0.057-0.45-0.082-0.675
			s-0.047-0.45-0.067-0.675c-0.715-6.705-1.265-13.408-1.65-20.109s-0.605-13.401-0.66-20.101
			c-0.09-10.565,0.228-21.127,0.954-31.69s1.861-21.125,3.406-31.69c0.57-3.91,1.195-7.818,1.876-11.725s1.419-7.815,2.214-11.725
			c0.69-3.375,2.513-6.28,5.024-8.341s5.711-3.279,9.156-3.279h111.965H394.08c3.08,0,5.97,0.978,8.345,2.666
			s4.235,4.089,5.255,6.934c0.105,0.285,0.2,0.577,0.286,0.875s0.164,0.6,0.234,0.905c6.2,27.875,9.3,55.75,9.3,83.625
			S414.4,190.819,408.2,218.694z"/>
		<path id="XMLID_1494_" style="fill:#FCD147;" d="M258.35,55.904H255h-3.35c-28.815,0-54.903,11.68-73.786,30.563
			S147.3,131.439,147.3,160.254v110.325v110.325H255h107.7V270.579V160.254c0-28.815-11.68-54.903-30.563-73.787
			S287.166,55.904,258.35,55.904z"/>
		<path id="XMLID_2614_" style="fill:#E1B541;" d="M282.5,58.724c-22.995,5.445-43.045,18.5-57.346,36.357
			S202.3,135.599,202.3,160.254v110.325v110.325h-27.5h-27.5V270.579V160.254c0-28.815,11.68-54.902,30.564-73.786
			s44.971-30.564,73.786-30.564H255h3.35c4.155,0,8.255,0.242,12.285,0.716S278.625,57.799,282.5,58.724z"/>
		<path id="XMLID_1503_" style="fill:#DE7599;" d="M362.7,401.644l-0.075,12.295l-0.075,12.295H262.37H162.19
			c-2.67-3.56-5.248-7.193-7.73-10.895s-4.87-7.475-7.16-11.315l0.005-1.19l0.005-1.19c0-6.55,0.592-12.918,1.711-19.015
			c1.119-6.098,2.764-11.925,4.869-17.395c1.42-3.705,3.052-7.245,4.876-10.592c1.824-3.347,3.839-6.502,6.024-9.437
			c5.52-7.425,12.123-13.44,19.47-17.599s15.44-6.461,23.94-6.461h46.805h46.805c1.045,0,2.085,0.035,3.119,0.105
			c1.034,0.07,2.061,0.175,3.081,0.315c2.345,0.31,4.652,0.797,6.912,1.452c2.26,0.655,4.473,1.478,6.628,2.458
			c4.52,2.045,8.798,4.772,12.765,8.09c3.967,3.318,7.625,7.225,10.905,11.63c2.18,2.935,4.195,6.092,6.02,9.442
			c1.825,3.35,3.46,6.893,4.88,10.598c2.105,5.465,3.75,11.293,4.869,17.391C362.108,388.724,362.7,395.094,362.7,401.644z"/>
		<path id="XMLID_1502_" style="fill:#FB80A5;" d="M362.7,401.644l-0.075,12.295l-0.075,12.295h-90.24h-90.24v-12.295v-12.295
			c0-6.55,0.592-12.92,1.711-19.019c1.119-6.099,2.764-11.926,4.869-17.391c0.38-1,0.777-1.987,1.191-2.962
			c0.414-0.975,0.844-1.937,1.289-2.887c0.695-1.485,1.425-2.94,2.19-4.36c0.765-1.42,1.565-2.805,2.4-4.15
			c1.795-2.92,3.743-5.672,5.828-8.234c2.085-2.561,4.308-4.931,6.653-7.086c2.74-2.53,5.647-4.767,8.695-6.68
			c3.048-1.912,6.235-3.5,9.535-4.73c0.08-0.03,0.16-0.06,0.241-0.089c0.081-0.029,0.164-0.056,0.249-0.081
			c1.94-0.7,3.92-1.278,5.935-1.724c2.015-0.446,4.065-0.761,6.145-0.936c0.655-0.055,1.315-0.098,1.978-0.126
			c0.662-0.029,1.327-0.044,1.992-0.044h29.42h29.42c1.045,0,2.085,0.035,3.119,0.105c1.034,0.07,2.061,0.175,3.081,0.315
			c2.345,0.31,4.652,0.797,6.912,1.452c2.26,0.655,4.473,1.478,6.628,2.458c4.52,2.045,8.798,4.772,12.765,8.09
			c3.967,3.318,7.625,7.225,10.905,11.63c2.18,2.935,4.195,6.092,6.02,9.442c1.825,3.35,3.46,6.893,4.88,10.598
			c2.105,5.465,3.75,11.293,4.869,17.391C362.108,388.724,362.7,395.094,362.7,401.644z"/>
		<path id="XMLID_1501_" style="fill:#DE9B6E;" d="M285.206,294.15v20.923v20.923c0,3.358-1.361,6.398-3.562,8.599
			c-2.201,2.201-5.241,3.562-8.599,3.562h-17.229h-17.229c-3.358,0-6.398-1.361-8.599-3.562c-2.201-2.201-3.562-5.241-3.562-8.599
			v-20.923V294.15h29.389H285.206z"/>
		<path id="XMLID_1500_" style="fill:#F9B27A;" d="M285.206,294.15v21.659v21.659c0,2.951-1.196,5.623-3.13,7.557
			c-1.934,1.934-4.606,3.13-7.557,3.13h-17.764h-17.764v-27.003V294.15h23.108H285.206z"/>
		<path id="XMLID_1498_" style="fill:#F9B27A;" d="M135.706,200.57c0,6.031,2.445,11.492,6.397,15.444
			c3.953,3.953,9.413,6.397,15.444,6.397c6.031,0,11.492-2.445,15.444-6.397c3.952-3.952,6.397-9.413,6.397-15.444
			c0-6.031-2.445-11.492-6.397-15.444c-3.952-3.953-9.413-6.397-15.444-6.397c-6.031,0-11.492,2.445-15.444,6.397
			C138.151,189.078,135.706,194.539,135.706,200.57z"/>
		<path id="XMLID_1497_" style="fill:#D08F69;" d="M148.811,200.57c0,2.413,0.978,4.597,2.559,6.178
			c1.581,1.581,3.765,2.559,6.178,2.559c2.413,0,4.597-0.978,6.178-2.559c1.581-1.581,2.559-3.765,2.559-6.178
			c0-2.413-0.978-4.597-2.559-6.178c-1.581-1.581-3.765-2.559-6.178-2.559c-2.413,0-4.597,0.978-6.178,2.559
			C149.789,195.973,148.811,198.157,148.811,200.57z"/>
		<path id="XMLID_1496_" style="fill:#F9B27A;" d="M330.611,200.57c0,6.031,2.445,11.492,6.397,15.444
			c3.952,3.953,9.413,6.397,15.444,6.397c6.031,0,11.492-2.445,15.444-6.397c3.953-3.952,6.397-9.413,6.397-15.444
			c0-6.031-2.445-11.492-6.397-15.444c-3.952-3.953-9.413-6.397-15.444-6.397c-6.031,0-11.492,2.445-15.444,6.397
			C333.056,189.078,330.611,194.539,330.611,200.57z"/>
		<path id="XMLID_1495_" style="fill:#DE9B6E;" d="M343.716,200.57c0,2.413,0.978,4.597,2.559,6.178
			c1.581,1.581,3.765,2.559,6.178,2.559c2.413,0,4.597-0.978,6.178-2.559c1.581-1.581,2.559-3.765,2.559-6.178
			c0-2.413-0.978-4.597-2.559-6.178c-1.581-1.581-3.765-2.559-6.178-2.559c-2.413,0-4.597,0.978-6.178,2.559
			C344.694,195.973,343.716,198.157,343.716,200.57z"/>
		<path id="XMLID_3405_" style="fill:#DE9B6E;" d="M180.383,225.256v-25.591v-25.591c0-1.2,0.031-2.392,0.086-3.578
			s0.134-2.366,0.23-3.541h-3.108h-3.108c-2.23,0-4.405-0.25-6.501-0.725s-4.114-1.175-6.029-2.075
			c-0.455-0.215-0.902-0.44-1.344-0.677s-0.876-0.488-1.306-0.752c-0.25,1.855-0.438,3.73-0.562,5.622s-0.188,3.802-0.188,5.727
			v25.59v25.59c0,22.59,9.153,43.038,23.95,57.838c14.798,14.8,35.24,23.953,57.82,23.953h10.887h10.887
			c-22.568-0.021-42.996-9.182-57.782-23.98C189.527,268.265,180.383,247.829,180.383,225.256z"/>
		<path id="XMLID_3407_" style="fill:#DE9B6E;" d="M353.452,174.074c0-0.688-0.011-1.374-0.03-2.058s-0.046-1.365-0.078-2.046
			c0.032,0.68,0.058,1.362,0.076,2.046s0.028,1.369,0.028,2.057v25.591v25.591c0,9.004-1.458,17.666-4.148,25.765
			c-2.69,8.099-6.612,15.636-11.541,22.391c4.93-6.755,8.853-14.292,11.543-22.391c2.691-8.099,4.149-16.761,4.149-25.766v-25.59
			V174.074z"/>
		<path id="XMLID_3408_" style="fill:#F9B27A;" d="M335.43,121.247c0.21,0.271,0.419,0.543,0.627,0.816s0.414,0.547,0.617,0.824
			c-0.203-0.277-0.409-0.551-0.617-0.824S335.64,121.518,335.43,121.247z"/>
		<path id="XMLID_3409_" style="fill:#F9B27A;" d="M295.458,92.382c0.333,0.116,0.666,0.233,0.998,0.352s0.663,0.24,0.992,0.364
			c-0.329-0.124-0.66-0.245-0.992-0.364S295.791,92.499,295.458,92.382z"/>
		<path id="XMLID_3410_" style="fill:#F9B27A;" d="M332.923,118.147c0.221,0.26,0.441,0.522,0.659,0.784s0.435,0.526,0.65,0.792
			c-0.215-0.266-0.432-0.53-0.65-0.792S333.144,118.408,332.923,118.147z"/>
		<path id="XMLID_3411_" style="fill:#F9B27A;" d="M337.792,124.459c0.198,0.283,0.397,0.565,0.594,0.848s0.393,0.568,0.584,0.855
			c-0.192-0.287-0.387-0.572-0.584-0.855S337.99,124.741,337.792,124.459z"/>
		<path id="XMLID_3412_" style="fill:#F9B27A;" d="M287.624,90.053c0.345,0.085,0.689,0.172,1.032,0.262s0.685,0.181,1.027,0.274
			c-0.342-0.093-0.684-0.185-1.027-0.274S287.969,90.138,287.624,90.053z"/>
		<path id="XMLID_3413_" style="fill:#F9B27A;" d="M330.276,115.164c0.232,0.25,0.463,0.501,0.693,0.754s0.457,0.507,0.684,0.762
			c-0.227-0.255-0.455-0.51-0.684-0.762S330.508,115.414,330.276,115.164z"/>
		<path id="XMLID_3414_" style="fill:#F9B27A;" d="M291.58,91.128c0.34,0.101,0.678,0.203,1.016,0.308s0.675,0.211,1.011,0.32
			c-0.336-0.109-0.673-0.215-1.011-0.32S291.92,91.229,291.58,91.128z"/>
		<path id="XMLID_3416_" style="fill:#F9B27A;" d="M310.116,99.108c0.561,0.324,1.118,0.654,1.671,0.99s1.102,0.678,1.647,1.026
			c-0.545-0.348-1.094-0.69-1.647-1.026S310.677,99.432,310.116,99.108z"/>
		<path id="XMLID_3417_" style="fill:#F9B27A;" d="M315.145,102.222c0.285,0.191,0.565,0.388,0.844,0.587s0.557,0.399,0.837,0.597
			c-0.28-0.198-0.557-0.398-0.837-0.597S315.429,102.413,315.145,102.222z"/>
		<path id="XMLID_3418_" style="fill:#F9B27A;" d="M321.557,106.986c0.265,0.216,0.527,0.436,0.787,0.658s0.52,0.445,0.779,0.667
			c-0.26-0.222-0.519-0.445-0.779-0.667S321.823,107.202,321.557,106.986z"/>
		<path id="XMLID_3419_" style="fill:#F9B27A;" d="M324.588,109.579c0.255,0.228,0.507,0.459,0.757,0.691s0.5,0.466,0.749,0.7
			c-0.249-0.234-0.498-0.468-0.749-0.7S324.843,109.807,324.588,109.579z"/>
		<path id="XMLID_3420_" style="fill:#F9B27A;" d="M302.964,95.411c0.319,0.146,0.638,0.292,0.957,0.439s0.636,0.296,0.95,0.45
			c-0.315-0.154-0.632-0.303-0.95-0.45S303.283,95.557,302.964,95.411z"/>
		<path id="XMLID_11_" style="fill:#F9B27A;" d="M318.408,104.532c0.275,0.204,0.546,0.412,0.815,0.623s0.538,0.422,0.808,0.632
			c-0.27-0.21-0.538-0.422-0.808-0.632S318.683,104.736,318.408,104.532z"/>
		<path id="XMLID_3422_" style="fill:#F9B27A;" d="M306.586,97.178c0.31,0.16,0.621,0.318,0.931,0.479s0.619,0.322,0.925,0.489
			c-0.306-0.167-0.614-0.329-0.924-0.489S306.896,97.338,306.586,97.178z"/>
		<path id="XMLID_3423_" style="fill:#F9B27A;" d="M327.496,112.307c0.244,0.239,0.485,0.48,0.725,0.723s0.479,0.487,0.717,0.732
			c-0.238-0.245-0.477-0.489-0.717-0.732S327.74,112.546,327.496,112.307z"/>
		<path id="XMLID_3424_" style="fill:#F9B27A;" d="M299.256,93.812c0.326,0.131,0.652,0.263,0.978,0.396s0.649,0.268,0.971,0.408
			c-0.322-0.139-0.646-0.274-0.971-0.408S299.582,93.943,299.256,93.812z"/>
		<path id="XMLID_3426_" style="fill:#F9B27A;" d="M340.006,127.776c0.187,0.294,0.375,0.587,0.561,0.881s0.371,0.589,0.551,0.888
			c-0.18-0.299-0.364-0.594-0.551-0.888S340.192,128.07,340.006,127.776z"/>
		<path id="XMLID_3431_" style="fill:#F9B27A;" d="M275.338,87.955c0.353,0.034,0.704,0.074,1.054,0.117s0.7,0.087,1.051,0.129
			c-0.35-0.042-0.7-0.087-1.051-0.129S275.691,87.99,275.338,87.955z"/>
		<path id="XMLID_3432_" style="fill:#F9B27A;" d="M271.672,307.044h-4.788h-4.788c0.013,0,0.026,0,0.039,0.001
			s0.026,0.001,0.039,0.001h4.75h4.75c13.58,0,26.384-3.313,37.651-9.174c11.267-5.861,20.999-14.269,28.435-24.461
			c-7.437,10.191-17.169,18.599-28.437,24.459S285.251,307.044,271.672,307.044z"/>
		<path id="XMLID_3433_" style="fill:#F9B27A;" d="M268.569,87.583c-0.276-0.005-0.551-0.016-0.826-0.025s-0.55-0.017-0.828-0.017h0
			h0c-0.022,0-0.043,0.001-0.065,0.002s-0.043,0.002-0.065,0.002h0.063h0.063c0.278,0,0.554,0.007,0.83,0.015
			S268.293,87.578,268.569,87.583z"/>
		<path id="XMLID_3434_" style="fill:#F9B27A;" d="M271.12,87.647c0.345,0.017,0.688,0.04,1.031,0.066s0.685,0.053,1.028,0.078
			c-0.343-0.025-0.685-0.052-1.028-0.078S271.465,87.664,271.12,87.647z"/>
		<path id="XMLID_3438_" style="fill:#F9B27A;" d="M283.595,89.163c0.349,0.068,0.697,0.14,1.045,0.215s0.694,0.15,1.04,0.227
			c-0.346-0.077-0.693-0.153-1.04-0.227S283.945,89.232,283.595,89.163z"/>
		<path id="XMLID_3439_" style="fill:#F9B27A;" d="M279.498,88.462c0.353,0.051,0.703,0.108,1.053,0.166s0.7,0.119,1.049,0.179
			c-0.35-0.06-0.699-0.12-1.049-0.179S279.851,88.514,279.498,88.462z"/>
		<path id="XMLID_3441_" style="fill:#F9B27A;" d="M353.448,174.073c0-0.688-0.01-1.374-0.028-2.057s-0.044-1.365-0.076-2.046
			c-0.005-0.111-0.01-0.222-0.016-0.333s-0.011-0.222-0.017-0.332c-0.036-0.659-0.078-1.317-0.128-1.972s-0.106-1.309-0.171-1.96
			c-0.013-0.129-0.029-0.258-0.044-0.386s-0.032-0.257-0.046-0.386c-0.034-0.313-0.073-0.624-0.114-0.935s-0.083-0.621-0.124-0.932
			c-1.958,1.177-4.05,2.132-6.249,2.834s-4.503,1.151-6.884,1.316c-0.335,0.02-0.673,0.038-1.013,0.05s-0.682,0.02-1.027,0.02
			h-13.33h-13.33c-2.825,0-5.555-0.408-8.146-1.164s-5.044-1.861-7.314-3.256c-4.495-2.765-8.258-6.69-10.903-11.384
			s-4.172-10.156-4.197-15.996c-0.04,8.79-3.473,16.74-8.999,22.493s-13.146,9.308-21.561,9.308h-34.517h-34.517
			c-0.096,1.175-0.175,2.355-0.23,3.541s-0.086,2.378-0.086,3.578v25.591v25.591c0,22.573,9.144,43.009,23.931,57.808
			c14.786,14.799,35.215,23.959,57.782,23.98h4.788h4.788c13.579,0,26.383-3.313,37.651-9.173s21-14.269,28.437-24.459
			c4.929-6.755,8.851-14.292,11.541-22.391c2.69-8.099,4.148-16.761,4.148-25.765v-25.591V174.073z"/>
		<path id="XMLID_3442_" style="fill:#FCD147;" d="M304.871,96.299c0.289,0.141,0.575,0.287,0.86,0.434s0.569,0.296,0.855,0.444
			c-0.285-0.147-0.569-0.296-0.855-0.444S305.16,96.441,304.871,96.299z"/>
		<path id="XMLID_3443_" style="fill:#FCD147;" d="M293.607,91.756c0.31,0.101,0.619,0.203,0.928,0.308s0.616,0.211,0.923,0.318
			c-0.307-0.107-0.615-0.214-0.923-0.318S293.917,91.856,293.607,91.756z"/>
		<path id="XMLID_3444_" style="fill:#FCD147;" d="M268.569,87.583c0.426,0.008,0.852,0.014,1.278,0.023s0.85,0.021,1.273,0.041
			c-0.423-0.02-0.847-0.032-1.273-0.041S268.995,87.591,268.569,87.583z"/>
		<path id="XMLID_3445_" style="fill:#FCD147;" d="M308.442,98.146c0.283,0.155,0.562,0.315,0.84,0.477s0.556,0.325,0.834,0.486
			c-0.279-0.161-0.556-0.324-0.834-0.486S308.724,98.3,308.442,98.146z"/>
		<path id="XMLID_3446_" style="fill:#FCD147;" d="M285.68,89.605c0.325,0.072,0.65,0.144,0.974,0.219s0.648,0.151,0.97,0.23
			c-0.322-0.079-0.646-0.155-0.97-0.23S286.005,89.677,285.68,89.605z"/>
		<path id="XMLID_3447_" style="fill:#FCD147;" d="M277.443,88.201c0.343,0.042,0.687,0.082,1.029,0.125s0.685,0.087,1.026,0.137
			c-0.341-0.05-0.683-0.094-1.026-0.137S277.786,88.243,277.443,88.201z"/>
		<path id="XMLID_3448_" style="fill:#FCD147;" d="M297.448,93.099c0.304,0.115,0.606,0.232,0.907,0.352s0.601,0.24,0.901,0.361
			c-0.3-0.121-0.601-0.242-0.902-0.361S297.751,93.214,297.448,93.099z"/>
		<path id="XMLID_3449_" style="fill:#FCD147;" d="M273.179,87.791c0.36,0.026,0.721,0.05,1.081,0.076s0.72,0.054,1.078,0.089
			c-0.358-0.035-0.717-0.063-1.078-0.089S273.539,87.817,273.179,87.791z"/>
		<path id="XMLID_3450_" style="fill:#FCD147;" d="M289.682,90.589c0.318,0.086,0.635,0.174,0.951,0.264s0.632,0.181,0.947,0.275
			c-0.315-0.094-0.63-0.185-0.947-0.275S290,90.676,289.682,90.589z"/>
		<path id="XMLID_3451_" style="fill:#FCD147;" d="M281.601,88.807c0.333,0.057,0.667,0.114,0.999,0.172s0.665,0.119,0.995,0.184
			c-0.331-0.065-0.663-0.125-0.995-0.184S281.934,88.864,281.601,88.807z"/>
		<path id="XMLID_3452_" style="fill:#FCD147;" d="M301.205,94.615c0.296,0.128,0.589,0.26,0.882,0.393s0.585,0.268,0.877,0.402
			c-0.292-0.134-0.584-0.269-0.877-0.402S301.5,94.743,301.205,94.615z"/>
		<path id="XMLID_3463_" style="fill:#FCD147;" d="M323.124,108.31c0.245,0.21,0.491,0.419,0.736,0.63s0.488,0.423,0.728,0.638
			c-0.241-0.215-0.484-0.427-0.728-0.638S323.369,108.52,323.124,108.31z"/>
		<path id="XMLID_3464_" style="fill:#FCD147;" d="M338.971,126.161c0.177,0.266,0.35,0.535,0.522,0.804s0.342,0.54,0.513,0.81
			c-0.171-0.27-0.342-0.541-0.513-0.81S339.148,126.427,338.971,126.161z"/>
		<path id="XMLID_3465_" style="fill:#FCD147;" d="M326.094,110.97c0.235,0.221,0.471,0.442,0.705,0.664s0.467,0.446,0.697,0.672
			c-0.23-0.226-0.463-0.45-0.697-0.672S326.33,111.191,326.094,110.97z"/>
		<path id="XMLID_3466_" style="fill:#FCD147;" d="M320.032,105.787c0.255,0.199,0.511,0.396,0.766,0.595s0.509,0.399,0.759,0.604
			c-0.251-0.204-0.504-0.405-0.759-0.604S320.287,105.985,320.032,105.787z"/>
		<path id="XMLID_3467_" style="fill:#FCD147;" d="M316.825,103.406c0.264,0.187,0.53,0.372,0.795,0.559s0.528,0.374,0.788,0.567
			c-0.26-0.193-0.523-0.381-0.788-0.567S317.089,103.593,316.825,103.406z"/>
		<path id="XMLID_3468_" style="fill:#FCD147;" d="M313.433,101.125c0.286,0.182,0.573,0.362,0.859,0.544s0.571,0.364,0.852,0.553
			c-0.281-0.189-0.566-0.372-0.852-0.553S313.719,101.307,313.433,101.125z"/>
		<path id="XMLID_3469_" style="fill:#FCD147;" d="M328.938,113.761c0.225,0.232,0.45,0.464,0.673,0.698s0.445,0.469,0.665,0.705
			c-0.22-0.237-0.442-0.472-0.665-0.705S329.163,113.993,328.938,113.761z"/>
		<path id="XMLID_3470_" style="fill:#FCD147;" d="M334.233,119.723c0.203,0.251,0.404,0.504,0.603,0.758s0.397,0.51,0.594,0.765
			c-0.197-0.256-0.395-0.511-0.594-0.765S334.436,119.974,334.233,119.723z"/>
		<path id="XMLID_3471_" style="fill:#FCD147;" d="M336.674,122.886c0.19,0.259,0.378,0.52,0.563,0.783s0.37,0.526,0.555,0.789
			c-0.185-0.263-0.369-0.527-0.555-0.789S336.865,123.145,336.674,122.886z"/>
		<path id="XMLID_3472_" style="fill:#FCD147;" d="M331.652,116.681c0.215,0.242,0.428,0.485,0.639,0.73s0.422,0.49,0.631,0.737
			c-0.209-0.247-0.42-0.492-0.631-0.737S331.867,116.923,331.652,116.681z"/>
		<path id="XMLID_1490_" style="fill:#E29F6E;" d="M264.082,230.973h-8.263h-8.263c-2.364,0-4.505-0.958-6.054-2.508
			c-1.549-1.549-2.508-3.69-2.508-6.054l0,0v0c0-2.364,0.958-4.505,2.508-6.054s3.69-2.508,6.054-2.508h8.263h8.263
			c2.364,0,4.505,0.958,6.054,2.508c1.549,1.549,2.508,3.69,2.508,6.054v0l0,0c0,2.364-0.958,4.505-2.508,6.054
			C268.587,230.015,266.447,230.973,264.082,230.973z"/>
		<path id="XMLID_1489_" style="fill:none;stroke:#1F3D5C;stroke-width:8;stroke-linecap:round;stroke-miterlimit:10;" d="
			M234.797,253.945c0,5.805,2.353,11.061,6.157,14.865s9.06,6.157,14.865,6.157c5.805,0,11.061-2.353,14.865-6.157
			s6.157-9.06,6.157-14.865"/>
		<path id="XMLID_1488_" style="fill:none;stroke:#1F3D5C;stroke-width:8;stroke-linecap:round;stroke-miterlimit:10;" d="
			M292.998,190.794c0,3.589,1.455,6.839,3.807,9.191c2.352,2.352,5.602,3.807,9.191,3.807s6.839-1.455,9.191-3.807
			c2.352-2.352,3.807-5.602,3.807-9.191"/>
		<path id="XMLID_1487_" style="fill:none;stroke:#1F3D5C;stroke-width:8;stroke-linecap:round;stroke-miterlimit:10;" d="
			M195.431,190.794c0,3.589,1.455,6.839,3.807,9.191c2.352,2.352,5.602,3.807,9.191,3.807s6.839-1.455,9.191-3.807
			c2.352-2.352,3.807-5.602,3.807-9.191"/>
		<path id="XMLID_1486_" style="fill:#FDC2D1;" d="M244.52,426.234h-17.4h-17.4l-9.42-13.415l-9.42-13.415
			c-0.96-1.36-1.352-2.968-1.207-4.526c0.145-1.559,0.827-3.069,2.017-4.234l12.27-11.99l12.27-11.99l-0.93-0.715l-0.93-0.715
			l-9.325-7.18l-9.325-7.18l-0.14-0.105l-0.14-0.105c-1.895-1.455-2.76-3.635-2.64-5.76s1.225-4.195,3.27-5.43l15.18-9.165
			l15.18-9.165l0.245,1.415l0.245,1.415l3.55,20.63l3.55,20.63l5.25,30.5L244.52,426.234z"/>
		<path id="XMLID_1485_" style="fill:#FDC2D1;" d="M320.76,399.404l-9.42,13.415l-9.42,13.415h-17.4h-17.4l5.25-30.5l5.25-30.5
			l3.795-22.045l3.795-22.045l15.18,9.165l15.18,9.165c2.045,1.235,3.15,3.305,3.27,5.43c0.12,2.125-0.745,4.305-2.64,5.76
			l-9.465,7.285l-9.465,7.285l-0.93,0.715l-0.93,0.715l12.27,11.99l12.27,11.99c1.19,1.165,1.872,2.675,2.017,4.234
			C322.113,396.437,321.72,398.044,320.76,399.404z"/>
		<path id="XMLID_1537_" style="fill:#FC840A;" d="M487.54,365.234c-4.795,10.135-10.235,19.905-16.268,29.256
			s-12.658,18.284-19.823,26.744l-0.04,0.05l-0.04,0.05c-0.34,0.405-0.683,0.808-1.028,1.209s-0.692,0.801-1.042,1.201
			c-0.36,0.415-0.722,0.83-1.087,1.245s-0.733,0.83-1.103,1.245H256H64.89c-0.37-0.415-0.738-0.83-1.103-1.245
			s-0.728-0.83-1.087-1.245c-1.945-2.235-3.85-4.502-5.715-6.804s-3.69-4.636-5.475-7.006c-5.23-6.935-10.117-14.143-14.634-21.6
			s-8.661-15.165-12.406-23.1h231.535H487.54z"/>
	</g>
	<path id="XMLID_1529_" style="fill:#D46C0C;" d="M447.11,426.234c-0.515,0.575-1.03,1.147-1.547,1.717s-1.038,1.138-1.563,1.702
		c-4.44,4.805-9.06,9.437-13.851,13.887s-9.754,8.718-14.879,12.792c-0.135,0.11-0.27,0.217-0.405,0.324s-0.27,0.211-0.405,0.316
		c-11.955,9.435-24.772,17.827-38.315,25.039s-27.81,13.241-42.665,17.951c-12.22,3.88-24.837,6.865-37.776,8.88
		s-26.199,3.06-39.704,3.06s-26.765-1.045-39.704-3.06s-25.556-5-37.776-8.88c-13.22-4.19-25.975-9.428-38.167-15.614
		s-23.823-13.321-34.792-21.306c-1.355-0.985-2.703-1.983-4.04-2.994s-2.665-2.036-3.98-3.076l-0.405-0.32l-0.405-0.32
		c-5.51-4.385-10.835-8.99-15.961-13.805S70.715,432.689,66,427.464c-0.185-0.205-0.37-0.41-0.555-0.615s-0.37-0.41-0.555-0.615H256
		H447.11z"/>
</g>
</svg>
